Land_normalized_Motion_pl07
version=1
nRows=25
nColumns=43
inDegrees=yes
endheader
time		pelvis_tilt		pelvis_list		pelvis_rotation		pelvis_tx		pelvis_ty		pelvis_tz		hip_flexion_r		hip_adduction_r		hip_rotation_r		knee_angle_r		ankle_angle_r		subtalar_angle_r		mtp_angle_r		hip_flexion_l		hip_adduction_l		hip_rotation_l		knee_angle_l		ankle_angle_l		subtalar_angle_l		mtp_angle_l		lumbar_extension		lumbar_bending		lumbar_rotation		neck_flexion		neck_lateral_bending		neck_rotation		arm_flex_r		arm_add_r		arm_rot_r		elbow_flex_r		pro_sup_r		wrist_flex_r		wrist_dev_r		hand_finger_flex_r		arm_flex_l		arm_add_l		arm_rot_l		elbow_flex_l		pro_sup_l		wrist_flex_l		wrist_dev_l		hand_finger_flex_l		
0.798333		1.411016		-1.891340		90.895458		-0.011259		0.665603		0.458486		68.883181		-11.361794		-7.030985		-93.564138		22.820401		5.577504		-1.355780		67.338443		-6.854942		1.370547		-91.945448		30.427821		-5.931832		-14.027061		-34.103048		3.842321		-0.721145		-2.264955		0.116130		4.870688		-41.346653		-9.403979		-44.424157		44.687434		85.515175		-28.618822		-24.073565		37.471752		-39.630882		-12.481025		-37.555326		30.931620		89.671530		-37.792693		-11.140840		85.168806		
0.801162		1.498306		-1.696348		90.972408		-0.011789		0.657219		0.456630		69.867544		-11.606419		-6.847407		-95.481587		22.877482		5.700664		-1.260818		68.132759		-6.666899		1.724098		-93.647462		31.047752		-6.167860		-13.977141		-35.123911		4.015053		-0.600329		-0.935333		0.075964		4.860302		-39.324742		-9.991978		-43.620799		45.254974		85.795533		-28.492502		-24.212708		37.816368		-37.479416		-12.846468		-36.731729		31.902762		90.070444		-37.528039		-11.301424		85.363937		
0.803990		1.579701		-1.410503		91.057932		-0.012303		0.649156		0.454734		70.706638		-11.885152		-6.678954		-97.342543		22.975484		5.927979		-1.139564		68.831232		-6.499450		2.066565		-95.364149		31.539939		-6.240766		-13.907687		-36.259008		4.182980		-0.448056		0.475263		0.043522		4.778498		-37.290305		-10.525753		-42.929447		45.894871		86.130298		-28.393314		-24.507775		38.360274		-35.292661		-13.251740		-35.924264		32.933454		90.502093		-37.201930		-11.510162		85.712461		
0.806818		1.683219		-0.941214		91.112346		-0.012707		0.641467		0.452697		71.272081		-12.131560		-6.525794		-99.152263		23.320724		6.488947		-0.459699		69.304491		-6.420260		2.401852		-97.095868		32.183007		-6.107957		-13.450318		-37.547324		4.374481		-0.228289		1.747106		-0.146179		4.525402		-35.181411		-10.866432		-42.774199		46.715977		86.958761		-29.080100		-24.899213		42.124437		-33.000785		-13.615831		-35.446005		33.917355		91.246290		-36.875068		-11.901462		87.483192		
0.809646		1.763471		-0.651204		91.207893		-0.013169		0.633733		0.450728		72.009819		-12.395994		-6.352431		-100.864789		23.399562		6.684208		-0.163773		69.985676		-6.259343		2.736108		-98.786486		32.493518		-6.099045		-13.237220		-38.642045		4.515299		-0.047921		3.022718		-0.091188		4.446012		-33.104424		-11.373862		-42.204106		47.464561		87.446550		-29.314322		-25.000000		43.697004		-30.811156		-14.005162		-34.772695		35.151075		91.714675		-36.658954		-12.170533		88.167980		
0.812475		1.865096		-0.191414		91.261961		-0.013476		0.626252		0.448735		72.511105		-12.595552		-6.208054		-102.510770		23.675956		7.022102		0.668706		70.477965		-6.209401		3.029550		-100.474677		32.904302		-5.960726		-12.315527		-39.921705		4.672633		0.056195		4.369902		-0.120270		4.361811		-30.947311		-11.819486		-41.855556		48.506171		88.555904		-30.450080		-25.000000		47.481038		-28.727501		-14.390796		-34.067800		36.474442		91.993587		-36.523633		-12.339270		89.353382		
0.815303		1.941130		-0.023231		91.341915		-0.013770		0.618700		0.446741		73.285649		-12.799972		-6.045328		-104.073283		23.779079		7.055700		0.760490		71.257173		-6.084141		3.314060		-102.089842		33.067998		-6.009439		-12.216243		-40.861318		4.759324		0.212895		5.664814		0.049598		4.336520		-28.954375		-12.344369		-41.083166		49.507057		88.855548		-30.351477		-25.000000		47.767110		-26.655701		-14.794564		-33.259000		37.993453		92.287524		-36.287938		-12.604485		89.495246		
0.818131		2.033014		0.203144		91.385813		-0.013924		0.611307		0.444775		73.940947		-12.935887		-5.896332		-105.555979		24.039037		7.151307		0.875152		71.970680		-6.035183		3.571769		-103.675568		33.273058		-5.989230		-12.080535		-41.876014		4.837660		0.336300		7.046716		0.199631		4.279616		-26.975358		-12.869046		-40.361055		50.707534		89.314961		-30.308297		-25.000000		48.142154		-24.681347		-15.233899		-32.426186		39.608985		92.551624		-36.002595		-12.870972		89.741707		
0.820960		2.132059		0.433946		91.411352		-0.014025		0.604107		0.442796		74.529897		-13.044969		-5.763965		-106.958990		24.367688		7.279927		1.010645		72.656434		-6.030698		3.803730		-105.214032		33.472127		-5.938957		-11.902434		-42.882186		4.908147		0.481986		8.411886		0.353645		4.213665		-25.012788		-13.396108		-39.645242		51.983087		89.913354		-30.344387		-25.000000		48.615566		-22.728630		-15.696986		-31.545390		41.308972		92.773264		-35.709757		-13.132464		89.966364		
0.823788		2.240969		0.668228		91.416316		-0.014085		0.597111		0.440754		75.049074		-13.118041		-5.638067		-108.289744		24.755773		7.517990		1.545865		73.308901		-6.060112		4.029985		-106.722159		33.622329		-5.868035		-10.852172		-43.851426		5.005228		0.638513		9.666421		0.363293		4.102684		-22.949796		-13.873053		-39.079357		53.242666		91.310275		-31.330611		-25.000000		50.901930		-20.793396		-16.252677		-30.361710		42.997182		92.484804		-35.512647		-13.318586		90.000210		
0.826616		2.350803		0.843087		91.405811		-0.014093		0.590116		0.438777		75.609125		-13.160743		-5.522957		-109.562087		25.140701		7.655240		2.040418		74.020084		-6.103348		4.228445		-108.173894		33.722026		-5.879277		-9.885857		-44.733288		5.074780		0.795550		10.851817		0.444130		4.010681		-20.979745		-14.425142		-38.335244		54.615543		92.425902		-32.162450		-25.000000		52.879647		-18.914944		-16.837294		-29.162315		44.782192		92.295711		-35.348463		-13.559376		90.000210		
0.829444		2.455855		0.939103		91.374822		-0.014043		0.583178		0.436845		76.221337		-13.163935		-5.414727		-110.770284		25.558350		7.647592		2.156214		74.793827		-6.151002		4.413147		-109.566607		33.815863		-5.950971		-9.745261		-45.529976		5.091888		0.936927		12.079615		0.634488		3.949953		-19.122396		-15.117370		-37.279459		56.039804		92.742872		-32.150135		-25.000000		52.975163		-17.094695		-17.429659		-28.094018		46.680299		92.601539		-35.142940		-13.868005		90.000210		
0.832273		2.564049		1.032215		91.343261		-0.013987		0.576475		0.434897		76.775221		-13.161175		-5.329543		-111.912612		26.051014		7.687303		2.286804		75.539409		-6.231866		4.574234		-110.903461		33.908854		-6.004338		-9.572388		-46.326863		5.111147		1.090142		13.350574		0.808217		3.874337		-17.248053		-15.857321		-36.174345		57.462449		93.170807		-32.314574		-25.000000		53.012305		-15.302273		-18.089351		-26.876511		48.606037		92.860763		-34.987629		-14.125467		90.000210		
0.835101		2.678674		1.216841		91.280995		-0.014025		0.570133		0.432846		77.141807		-13.167712		-5.240223		-113.004855		26.634749		7.972365		2.841875		76.150967		-6.311263		4.731427		-112.227711		33.939574		-6.065460		-8.175122		-47.181537		5.162219		1.280340		14.612284		0.843565		3.730654		-15.365936		-16.666379		-34.690588		58.856776		93.706220		-34.477984		-25.000000		53.113100		-13.464708		-18.950584		-24.965111		50.542473		92.109398		-36.025115		-13.977036		90.000210		
0.837929		2.763783		1.229075		91.207995		-0.013999		0.563599		0.430907		77.722225		-13.152214		-5.155676		-114.071109		27.160304		7.959277		2.992628		76.932539		-6.394719		4.840413		-113.483740		34.002610		-6.187803		-7.885546		-47.808057		5.151921		1.400694		15.629917		0.986206		3.667928		-13.551605		-17.543526		-33.426531		60.309610		94.067934		-34.584056		-25.000000		53.057737		-11.728242		-19.754866		-23.591285		52.515024		92.366097		-35.978383		-14.236965		90.000210		
0.840758		2.848547		1.329100		91.134625		-0.014026		0.557405		0.428896		78.139274		-13.144823		-5.062684		-115.095490		27.788064		8.117778		3.313741		77.604104		-6.475969		4.943571		-114.727502		33.993107		-6.327781		-7.000827		-48.544080		5.150298		1.560131		16.867747		1.073659		3.572574		-11.693626		-18.483805		-31.967245		61.694516		94.397649		-35.701585		-25.000000		52.597499		-9.948407		-20.700953		-21.828890		54.490086		92.241460		-36.651646		-14.243432		90.000210		
0.843586		2.904800		1.331693		91.073865		-0.014112		0.551166		0.426965		78.656470		-13.158602		-4.952124		-116.084554		28.413808		8.159809		3.454501		78.366318		-6.533247		5.005905		-115.924321		34.016102		-6.442170		-6.671245		-49.140786		5.124653		1.701208		17.958467		1.216775		3.539147		-9.867909		-19.482013		-30.608263		63.049120		94.742710		-36.139641		-25.000000		52.189976		-8.184893		-21.651785		-20.257117		56.522832		92.476338		-36.809720		-14.349008		90.000210		
0.846414		2.941616		1.325543		90.989787		-0.014112		0.545217		0.425133		79.137938		-13.183732		-4.882848		-117.003233		29.080681		8.252118		3.609218		79.092185		-6.611664		5.051747		-117.038333		33.980023		-6.535293		-6.252848		-49.745372		5.071646		1.805625		19.126517		1.340098		3.490243		-7.948482		-20.504716		-29.116625		64.373142		95.067255		-36.814399		-25.000000		51.597203		-6.388434		-22.738054		-18.512234		58.495540		92.670773		-37.137055		-14.341798		90.000210		
0.849242		2.951872		1.318042		90.907703		-0.014172		0.539178		0.423242		79.647847		-13.225731		-4.762871		-117.966246		29.774193		8.400915		3.742116		79.842305		-6.666789		5.068398		-118.193897		33.914978		-6.661784		-5.639466		-50.289883		5.005738		1.893286		20.188851		1.456812		3.445442		-6.068544		-21.654755		-27.397377		65.658716		95.218601		-38.017700		-25.000000		50.510572		-4.603654		-23.934304		-16.601614		60.500088		92.761555		-37.921887		-14.026164		90.000210		
0.852071		2.960011		1.272810		90.836000		-0.014215		0.533214		0.421454		80.184807		-13.240719		-4.632053		-118.877244		30.360315		8.407468		3.831817		80.629924		-6.703077		5.110291		-119.305161		33.865345		-6.720451		-5.317740		-50.751974		4.950550		1.956815		21.054584		1.465156		3.419895		-4.074878		-22.829510		-25.829414		66.776414		95.475010		-38.374402		-25.000000		49.994362		-2.754347		-25.151346		-14.850679		62.371108		93.055799		-38.094582		-14.001364		90.000210		
0.854899		2.928688		1.211473		90.794330		-0.014244		0.527372		0.419801		80.726329		-13.316160		-4.490986		-119.771312		31.131926		8.552810		3.893499		81.435206		-6.730890		5.075227		-120.379951		33.689741		-6.830390		-4.556193		-51.245437		4.852045		2.016058		22.205234		1.720930		3.448742		-2.136795		-24.037673		-23.982167		68.003608		95.430894		-39.875318		-25.000000		48.649736		-0.868608		-26.508579		-12.845985		64.436257		93.192372		-39.075943		-13.379812		90.000210		
0.857727		2.903601		1.109633		90.753630		-0.014162		0.521583		0.418272		81.317110		-13.349422		-4.370950		-120.628808		31.760888		8.526217		3.874989		82.279946		-6.739629		5.105704		-121.411169		33.495322		-6.868143		-3.729830		-51.626289		4.761376		2.024480		23.048475		1.850108		3.476333		-0.018442		-25.263128		-22.170395		69.005614		95.410606		-40.569396		-25.000000		47.805457		1.108899		-27.901216		-10.952851		66.290400		93.497794		-39.649512		-12.926218		90.000210		
0.860556		2.881553		1.014854		90.726962		-0.014063		0.515899		0.416822		81.891904		-13.387473		-4.258953		-121.466225		32.345962		8.489277		3.880317		83.131119		-6.772105		5.125145		-122.426769		33.333849		-6.853803		-3.431736		-52.007404		4.691482		2.030760		23.912453		1.927122		3.491757		2.178356		-26.410378		-20.597329		69.961409		95.649693		-40.751728		-25.000000		47.529060		3.196018		-29.271084		-9.221133		67.977518		93.931595		-39.619730		-12.787488		90.000210		
0.863384		2.832907		0.913531		90.688115		-0.013950		0.510159		0.415424		82.510091		-13.446713		-4.137490		-122.330865		32.952034		8.519040		3.816420		83.980247		-6.769068		5.145643		-123.425600		33.147788		-6.890556		-2.890435		-52.361161		4.574528		2.064638		24.706028		2.048879		3.521026		4.328907		-27.647703		-18.805900		70.915836		95.723557		-41.598391		-25.000000		46.980649		5.343006		-30.679744		-7.368174		69.768634		94.326990		-40.032009		-12.203008		90.000210		
0.866212		2.806834		0.805531		90.668131		-0.013760		0.504558		0.414132		83.121020		-13.483855		-4.042266		-123.155132		33.486752		8.455129		3.732497		84.839231		-6.789496		5.197429		-124.386226		32.980257		-6.858165		-2.516648		-52.679359		4.485617		2.072471		25.396415		2.143868		3.548832		6.633241		-28.810851		-17.085505		71.726396		95.835806		-41.982869		-25.000000		46.916401		7.620066		-32.066217		-5.588942		71.354534		94.795682		-40.208553		-11.732307		90.000210		
